<svg height="619" viewBox="0 0 751 619" width="751" xmlns="http://www.w3.org/2000/svg"><g fill="none"><g fill="#e7d3c5" transform="translate(212 139.4204)"><path d="m348.7 453.7c-.8-8.7-4.7-33.6-6.8-43.7-1.1-5.5-3.6-17.4-5.5-26.5s-3.4-18-3.4-19.7c0-2.9.3-3.3 2.6-3.3 1.4 0 11.2 2.7 21.7 6 10.6 3.2 24.8 7.3 31.7 8.9 6.9 1.7 15.7 4 19.5 5.1 3.9 1.1 8 2 9.3 2 2.3 0 2.3 0 .5 3.1-1 1.7-4.6 5.6-8 8.6s-7.3 7.3-8.7 9.6c-1.3 2.3-4.9 6.4-8 9-3.1 2.7-7.4 7.2-9.6 10.1s-5 5.8-6.2 6.5c-1.3.7-4.8 4.4-7.8 8.2-3 3.9-7.2 8.2-9.3 9.5-2.1 1.4-4.6 3.8-5.6 5.5s-2.8 3.7-3.9 4.5c-1.9 1.3-2 1.2-2.5-3.4z"/><path d="m203.5 327.4c-7.1-1.6-14.1-3.3-15.5-3.8-1.4-.6-4.4-1.5-6.7-2.1-4.2-1.1-4.3-1.2-4.3-5.3 0-3.7.6-4.8 3.8-7.8 7.9-7.5 7.5-7.4 29.2-7.1 10.7.1 20-.1 20.6-.5 1.3-.9 9-35 9.9-43.8 1.1-11.4 1.2-11.5 5.6-11.5 2.1 0 3.9.2 3.9.5 0 .9 9.1 47.3 11.1 56.5 1.2 5.2 2.2 11.3 2.2 13.5l.2 4-8.5 2.8c-13.7 4.6-27.1 7.7-33 7.6-3-.1-11.3-1.4-18.5-3z"/><path d="m308.7 298.2c-.3-2.3-1.5-6.3-2.6-8.7-3.3-7.3-2.8-10.4 2.2-13.8 4-2.8 12.3-6.2 15.1-6.2 1.5 0 18.9-7.6 22.1-9.6 2.7-1.7 22-9.4 23.7-9.4.7 0 3.6-1.2 6.3-2.6 2.8-1.4 8.3-3.8 12.3-5.5 4-1.6 8.3-3.6 9.5-4.4s4.7-1.9 7.7-2.6c3-.6 7.6-2.2 10.2-3.5s6.5-2.4 8.6-2.4c3.5 0 4.1.4 6.9 4.8 4.5 6.9 5.4 9 7.9 16.7 1.9 6.1 2.5 7 4.8 7.3 4.4.6 3.2 3.5-2.2 5.3-2.6.9-9.9 3.6-16.2 5.8-6.3 2.3-13.7 4.6-16.5 5.1-5.1 1-34.6 10.2-40 12.5-4.8 2.1-22.8 7.5-25 7.5-1.1 0-7.4 1.8-13.9 4-6.6 2.2-13.8 4-16.1 4-4.2 0-4.2 0-4.8-4.3z"/><path d="m57.1 288.9c-14.8-4.2-20.4-6.7-23.2-10-.7-.8-3.5-3-6.3-4.9s-8.1-6.3-11.8-9.9c-3.6-3.6-7.2-6.6-7.9-6.6s-2.7-1.1-4.6-2.6c-2.7-2.1-3.3-3.2-3.3-6.3 0-3.3.8-4.5 6.5-10.2 3.6-3.5 7.3-7.7 8.2-9.4 2.2-4.1 7-9.6 10.4-11.8 1.5-1 4.1-4.2 5.8-7.1 1.6-2.9 5.5-7.5 8.6-10.2 3.2-2.7 7.1-7.2 8.7-10.1 1.7-2.9 3.4-5.3 3.8-5.3 1 0 5-3.8 11.2-10.7l4.6-5.2-1.9-3.8c-1-2.1-4.6-6.9-8-10.8-3.3-3.8-6.9-8.7-8-10.7-1.1-2.1-5.4-8.2-9.7-13.5-4.2-5.4-9.8-12.9-12.4-16.8-2.6-3.8-6.1-8.5-7.8-10.4-2.4-2.5-3-4.1-2.8-6.5.3-2.9.5-3.1 4.3-3 2.2 0 9.8.8 17 1.8 12.6 1.6 20.4 3.1 40.5 7.6 15.8 3.5 48.9 10 50.9 10 6.2 0 9.8 9.4 4.6 11.8-1.4.7-4.7 3.1-7.3 5.5-2.6 2.3-7.2 5.9-10.2 7.9-3 2.1-7.7 6-10.5 8.9-2.7 2.8-6.8 6-9 6.9-2.2 1-5.6 3.4-7.5 5.5-1.9 2-6.1 5.5-9.2 7.7-4 2.8-5.8 4.7-5.8 6.2.1 1.2.7 12.5 1.6 25.1 1.4 23 2.3 38.2 4.4 74.3.6 10.6.8 19.7.5 20.2-1.2 2-9.3.8-24.4-3.6z"/><path d="m437 157c0-1.2-3.3-1.5-21.2-1.7l-21.3-.3-.3-3.4c-.2-1.9 0-3.7.5-4 .4-.3 2.1-2.4 3.7-4.6s6.1-7.2 10-11.1 9-9.1 11.2-11.5c2.3-2.4 6.9-7 10.1-10.1 5.3-5.2 6.4-5.8 10.1-5.8h4.2l-.1 21.5c-.1 11.9-.5 21.8-.9 22-.5.3-1.3 2.7-2 5.5-.7 3-1.7 5-2.6 5-.8 0-1.4-.7-1.4-1.5z"/><path d="m184 81.1c0-1.9 1.1-8.1 2.4-13.8 1.4-5.7 2.8-12.8 3.1-15.8.7-5.8 7.3-32.2 11.7-47 1.3-4.3 1.5-4.5 5.3-4.5h4l1.2 7.5c.7 4.1 2.1 10.4 3.2 14s2.7 10.1 3.7 14.5c.9 4.4 2.3 9.4 3.1 11.2.7 1.8 1.3 4.9 1.3 6.9 0 4.3-1.8 6.2-17 18-5.8 4.5-11.4 9.1-12.4 10.3-1.3 1.4-3.1 2.1-5.8 2.1-3.7 0-3.8-.1-3.8-3.4z"/></g><g fill="#d1b5a7" transform="translate(166 86.9204)"><path d="m358 530c-20.7-4.5-38.8-8-40.8-8-2.8 0-2.9-3-.3-5.4 1.1-1 3.3-4.6 5-8.2 1.7-3.5 5.5-9.9 8.4-14.2 3-4.2 7.7-12.2 10.6-17.7s6.8-12 8.7-14.4c1.8-2.4 4.3-6.8 5.4-9.8s3.4-7.3 5-9.6c5.9-8.1 12.8-19.2 13.5-21.7 1.2-3.9 5.8-9.7 10-12.6 2.1-1.4 4.8-3.8 5.9-5.2 3.3-4.2 6.8-7.6 10.6-10.2 1.9-1.4 7.1-6.1 11.5-10.6s8.9-8.4 10-8.8c1.1-.3 3-2.1 4.3-3.8 1.2-1.8 5.3-6 9.1-9.3 14.6-12.7 24.1-21.3 38.8-35.1 9-8.5 16.1-14.4 17.2-14.4s2.2-.4 2.5-.9c.3-.4 4-1.4 8.3-2 7.6-1.2 13.2-2.7 29.8-7.6 23-6.9 29-8.6 39.7-11 6.4-1.5 12.2-2.5 12.8-2.3 1.2.4-2.9 6.3-11.5 16.3-2.8 3.3-6.3 7.9-7.8 10.2-1.4 2.3-5.1 6.5-8 9.5-3 2.9-6.4 7.1-7.5 9.4-1.2 2.3-5 7.1-8.6 10.7-3.5 3.6-7.2 8-8.2 9.8-.9 1.9-3.8 5.7-6.4 8.5-2.7 2.8-6.4 7.6-8.4 10.7-1.9 3-3.9 5.7-4.4 5.9-1.1.4-12.7 14.8-17.1 21.2-1.8 2.6-5.9 7.3-9 10.4s-6.3 7.3-7.3 9.3c-.9 2-3.8 5.9-6.5 8.7-2.6 2.7-6.1 6.4-7.6 8.2-2.1 2.4-3.4 3-5 2.6-1.2-.3-5.3-1.5-9.2-2.6-3.8-1.1-12.6-3.4-19.5-5.1-6.9-1.6-21-5.6-31.3-8.8-17.7-5.5-18.8-5.8-18.3-3.7.3 1.1 1.2 5.7 2.1 10.1s3.1 15.2 5 24 4.1 21.6 5 28.5 2.3 14.8 3.2 17.7c.8 2.9 1.3 6.3.9 7.6-.3 1.4-5.8 7.7-12.1 14.1-13.2 13.3-12.4 13-28.5 9.6z"/><path d="m305.3 370c1.2-.8 1.5-1.6.8-2.8-.4-.9-1.6-5.5-2.4-10.2-.9-4.7-3.7-19-6.2-31.8s-4.5-23.5-4.5-23.7c0-.3-.4-.5-1-.5-.5 0-1 .7-1 1.5s-.7 1.5-1.5 1.5c-1.1 0-1.5-1.2-1.5-4.4 0-6.9.6-7.6 5.9-7.6 4.7 0 9.3 2.3 15.1 7.5 1.4 1.3 5 3.4 8 4.9 3 1.4 8.6 5.1 12.4 8.1 3.7 3.1 8.7 6.5 11 7.7 3.2 1.6 14.3 8.7 16.5 10.4.2.2-.6 1.1-1.7 2.1l-2.2 1.8 2.1 4.5c1.1 2.4 2.3 6.4 2.6 8.7.4 3.3 1 4.3 2.4 4.3 1.2 0 1.9.7 1.9 1.8 0 2.1-10.6 6.2-22.9 8.7-4 .8-10.5 2.9-14.5 4.6-4.8 2.1-9.3 3.2-14.1 3.5-5.4.4-6.6.3-5.2-.6z"/><path d="m121 344.6c0-.7.9-1.6 2-1.9 1.8-.5 2-1.1 1.6-5.4-.3-2.6-1-14.9-1.6-27.3s-1.5-27.7-2-34c-.9-10.6-3-44.5-3-49 0-2.3-2.8-2.7-3.6-.5-.9 2.3-2.4 1.8-2.4-.9 0-2-.7-2.5-3.7-3.1-2.1-.3-8.7-1.8-14.8-3.1-6-1.4-14.1-3.2-18-4-9-1.9-22.5-5.1-29.5-6.9-3-.7-9.5-1.9-14.5-2.5-4.9-.6-14.1-2.3-20.2-3.8l-11.3-2.7v-3c0-2.4 1.2-4.2 5.3-8.2 2.8-2.8 7-6 9.2-7.1s6.5-4.5 9.6-7.5c3-3 7.5-6.5 10-7.7 2.4-1.3 7.3-5 10.9-8.3 11.5-10.5 20.5-14.1 25.6-10.2 1.8 1.5 1.8 1.6-.6 1.4-4-.2-4-.1-.9 3.3 1.6 1.8 5.1 6.5 7.7 10.3 2.6 3.9 8.2 11.4 12.4 16.8 4.3 5.3 8.6 11.4 9.7 13.5 1.1 2 4.7 6.9 8 10.7 3.4 3.9 7.1 9 8.3 11.5s2.3 4.7 2.5 4.9c.5.7 9.5-5.9 14.8-11 2.8-2.6 6.6-5.4 8.5-6.2s5.8-3.7 8.5-6.6c2.8-2.8 7.5-6.8 10.5-8.9 3-2 7.6-5.6 10.2-7.9 2.6-2.4 5.9-4.8 7.3-5.5 1.9-.9 2.2-1.4 1.4-2.5-.9-1-.6-1.3 1.3-1.3 2.3 0 2.5.5 3.6 7.8.7 4.2 1.2 11 1.2 15 0 6.3-.6 8.5-4.5 17.7-2.5 5.8-5.3 12.2-6.4 14.3-1 2-2.4 6.2-3 9.2-1.1 5-7.3 21.1-9.1 23.5-1.5 1.9-8.7 21-9.4 25-.4 2.2-2.3 7.3-4.2 11.3s-3.4 7.5-3.4 7.8-2 5.1-4.4 10.7c-2.5 5.6-5.2 13-6.1 16.5s-2.7 8.8-4 11.8c-2.2 5.1-2.6 5.4-5.9 5.4-2.4 0-3.6-.5-3.6-1.4z"/><path d="m191.5 308.8c-.2-.7-.6-4-.9-7.3-.7-8.1-2.1-19.8-4.5-38.5-1.2-8.5-2.1-18.3-2.1-21.7 0-6.2 0-6.3 2.8-6.3 4.2 0 11.1 2.7 15.7 6 2.2 1.6 10.8 6.3 19.2 10.5s16.5 8.6 18 9.9 3.8 2.8 5.1 3.5c3.4 1.8 3.1 7.6-.6 9.9-3.2 2-7.5 5.3-17.4 13.5-3.8 3.1-7.3 5.7-7.7 5.7-.7 0-12.1 8.6-13.1 9.9-.3.3-2 1.9-3.8 3.4-3.6 2.9-9.9 3.8-10.7 1.5z"/><path d="m482 276.5c0-13.4.3-16.5 1.4-16.5 2.1 0 2.6 3.3 2.6 16.5s-.5 16.5-2.6 16.5c-1.1 0-1.4-3.1-1.4-16.5z"/><path d="m423.7 207.3c-2-1.9 2-20.9 5.3-25.5 1.1-1.4 3.2-5.3 4.8-8.5s4.1-7.8 5.5-10.3 3-6.4 3.7-8.8c.6-2.4 2.4-6.4 4.1-8.9 1.6-2.6 2.9-5.2 2.9-5.8s2.2-4.6 4.9-8.9c2.8-4.3 5.3-9.3 5.7-11 .3-1.7 3.4-8.2 6.7-14.3l6-11.3h4.8 4.8l2.2 7.3c1.1 3.9 3.3 9.9 4.7 13.2 2.8 6.8 3.1 13.2 1.8 40.5-.8 18-1.1 20-3 20s-2.9-4.9-2.1-10.5c.5-3.3.4-4.5-.5-4.5-1.3 0-8.9 7-17.4 15.8-2.2 2.4-7.7 8.1-12.1 12.5-4.5 4.5-9 9.7-10 11.5-1.1 1.7-2.3 3.2-2.8 3.2-.4 0-.5.5-.2 1 .3.6 1.5 1 2.5 1 1.3 0 1.7.5 1.4 1.5-.5 1.2-2.8 1.5-11.8 1.5-6.2 0-11.6-.3-11.9-.7z"/><path d="m262.6 110.8c3.3-3.7 3.5-4.5 2.1-8-.8-1.8-2.2-6.9-3.1-11.3-1-4.4-2.8-11.6-4.1-16-1.2-4.4-2.6-10.6-2.9-13.7-.8-6.1-2.4-8.4-3.3-4.9-.3 1.2-1.2 2.1-2.1 2.1-1.2 0-1.4-1-.9-5.4.3-3 1.1-6.5 1.9-7.9.7-1.4 10.8-12.2 22.4-24.1l21.2-21.6h5.1c4.6 0 5.1.2 5.1 2.3 0 2.6-6.2 39.7-9 53.9-1.9 9.5-6.5 20.4-11.4 27.2-1.1 1.7-5 8.9-8.7 16l-6.5 13.1-3.9.3-4 .3z"/></g><g fill="#e78c5b" transform="translate(124)"><path d="m91.4 558.120356c-1.2-.9-2.6-2.6-3.1-3.7-1-2.2-1-127.1 0-128.1.5-.5 25.2-6.1 35.4-8 2.2-.5 4.5 0 7.5 1.4 2.4 1.2 11.2 4 19.7 6.4 14.2 3.9 15.4 4.1 16.6 2.5 1.4-2 2.9-1.8 19 2.5 6.1 1.6 14.2 3.8 18 4.8 3.9 1.1 9 2.6 11.4 3.5 2.4.8 9.6 2.4 15.9 3.5s17.2 3.8 24.2 6c11.2 3.5 12.7 4.3 12.3 5.9s.3 2.2 3.9 3.1c2.3.6 6.1 1.7 8.3 2.5 2.2.7 10 2.5 17.3 4l13.2 2.7 9-2.1c9.3-2.2 26.8-7.8 28.5-9.1.6-.4 2.6-1 4.5-1.4 1.9-.3 6.7-2 10.7-3.6 3.9-1.7 10.4-3.7 14.5-4.5 4-.9 16.5-4.7 27.7-8.5 11.2-3.9 21.4-7 22.5-7 2.3 0 20.2-5.3 25.1-7.5 5.4-2.3 34.9-11.5 40-12.5 4.4-.8 9.3-2.4 33.2-11.1 5.7-2.1 8.3-2.4 8.3-1 0 1.7-30.1 29.9-55.1 51.6-3.8 3.3-7.9 7.5-9.1 9.3-1.3 1.7-3.2 3.5-4.3 3.8-1.1.4-5.6 4.3-10 8.8s-9.6 9.2-11.5 10.6c-3.4 2.3-4.9 3.8-11.9 11.4-1.8 2-4.6 4.3-6.2 5.2-1.6.8-2.9 1.8-2.9 2.2-.1.4-.9 1.7-2 3l-1.9 2.3-2.9-2.1c-1.7-1.3-5.5-2.5-9.6-3.1-3.8-.5-7.3-1.2-7.8-1.5-3.3-2.1-28.8-10.4-45.8-14.9-6.9-1.9-15.6-4.6-19.5-6-3.8-1.4-10.4-3.6-14.6-4.9l-7.5-2.3-3.3 5.7c-1.8 3.1-4.3 6.2-5.4 7-6.2 3.9-37.4 15.9-44.2 17.1-2.7.4-7.5 1.9-10.5 3.3-9.6 4.4-29.3 11.7-36.8 13.7-6.6 1.8-19.4 6.5-32.7 12-6.3 2.7-10.4 4.1-23.5 8-5.8 1.7-11.4 3.6-12.5 4.3-4.5 2.8-44.6 16.6-48.2 16.6-1 0-2.8-.8-3.9-1.8z"/><path d="m278 443.220356c0-3.6 3.8-8.1 21-25.3 6.8-6.9 13.9-14.2 15.7-16.3 5.5-6.5 11.2-10.7 14.5-10.7h3.1l-.7 7.3c-.9 9.4-8.6 44-10 45-.6.4-9.9.6-20.7.5-15.4-.2-19.9 0-21.2 1.1-1.5 1.2-1.7 1-1.7-1.6z"/><path d="m237.7 426.720356c-.3-1.3-1.1-6.8-1.7-12.3-.7-5.5-1.6-12.2-2.1-14.8s-.9-5.9-.9-7.2c0-3.1 2.5-3.3 3.3-.4.6 2.4 2.4 1.7 7.2-2.8 4-3.8 13.7-11.3 14.6-11.3.4 0 3.9-2.6 7.7-5.7 10.1-8.3 14.2-11.6 17.6-13.7 2.9-1.8 3-1.8 1-3.5-2.2-1.7-7.4-12.8-7.4-15.6 0-1-2.5-7.2-5.5-13.7-4.1-8.8-5.5-13-5.5-16.3 0-2.9.4-4.5 1.3-4.6 1.7 0 7.6-1.1 26.2-4.8 28.5-5.7 30.2-6.1 36.6-7.6 7.3-1.7 18.9-2 18.9-.5 0 .6.6 1 1.3 1s2.4 1.9 3.7 4.3c1.3 2.3 3.4 5.6 4.6 7.2 1.3 1.7 5.5 9.5 9.5 17.5 3.9 7.9 8.7 16.5 10.6 19.2 4 5.6 7.3 13.5 7.3 17.7 0 3.1-.4 3.4-7 4.6-1.9.4-6.6 2.2-10.5 4-18.7 8.9-26.3 11.9-30.9 12.3l-4.9.5.6-7.9c.6-7 3.8-28.2 8.1-53.4 3.2-18.1 5.6-19-20.3 7.2-12.6 12.8-24.9 25.2-27.1 27.6-2.3 2.3-4.8 4.2-5.6 4.2s-1.4.9-1.4 2c0 3.5-4.1 15.2-8.8 25.5-5.3 11.4-15 25.5-19.6 28.7-4.8 3.3-10.6 9-12.2 12.1-1.1 2.1-2.2 2.7-4.8 2.7-2.7 0-3.5-.5-3.9-2.2z"/><path d="m85.4 385.220356c-.9-3.2-2-6.2-2.4-6.8-.4-.5-1.5-3-2.4-5.5-1-2.4-3.3-7-5.1-10.2-1.9-3.1-5-10.1-7-15.5s-5.2-12.7-6.9-16.3c-8-15.8-10.7-21.8-12.1-26.5-.8-2.7-4.7-10.6-8.6-17.5s-8-14.4-9-16.8-4.5-8-7.7-12.5c-3.3-4.5-7.6-11.6-9.6-15.7-2.1-4.1-6.2-11.2-9.2-15.7-3.6-5.4-5.4-9.1-5.4-11.2 0-2.9.2-3.1 3.6-3.1 2 0 7.5.9 12.3 1.9 4.7 1.1 12.7 2.5 17.6 3.1 7.8 1 20.4 3.4 68.3 13.2 8.7 1.8 10.2 2.4 10.2 4.1 0 1.3-.5 1.7-1.4 1.4-2.6-1-12.8 5-20.1 11.6-3.8 3.5-9 7.4-11.4 8.7-2.5 1.2-7 4.7-10 7.7-3.1 3-7.4 6.4-9.6 7.5s-6.4 4.3-9.2 7.1l-5.3 5.1 8.8 2.3c4.8 1.2 14.8 3.2 22.2 4.2 7.4 1.1 14.9 2.4 16.5 3 3 .9 14.6 3.6 28 6.5 3.9.8 12.1 2.6 18.3 4.1 6.2 1.4 13.2 2.8 15.7 3.2 2.5.3 4.5.8 4.5 1 0 3-13.4 19.3-15.9 19.3-.5 0-2.2 2.4-3.9 5.3-1.6 2.9-5.5 7.4-8.7 10.1-3.1 2.7-7 7.3-8.6 10.2-1.7 2.9-4.3 6.1-5.8 7.1-3.5 2.2-8.3 7.8-10.4 11.9-.9 1.8-2.9 4.2-4.4 5.5-1.6 1.3-4.6 4.3-6.7 6.7-3.2 3.5-3.6 4.5-2.6 5.7 1.1 1.3.8 1.5-1.8 1.5-3 0-3.2-.3-4.8-5.7z"/><path d="m524 307.920356c0-10.3.1-11 2-11s2 .7 2 11-.1 11-2 11-2-.7-2-11z"/><path d="m95 188.320356c-23.4-.7-49.9-1.7-59-2.1l-16.5-.8-.7-7c-.4-3.8-.7-30.4-.7-59 .1-36.7000002-.2-52.0000002-1-52.3000002-.6-.2-1.1-.9-1.1-1.6 0-1.2 4-2.8 10.3-4.1 1.5-.3 4.6-1.8 6.7-3.4 2.2-1.6 6.8-3.9 10.2-5.1 3.5-1.3 7.7-3.1 9.3-4 1.7-1 5.7-2.3 9-3 3.3-.6 6.9-1.7 8-2.4s4.5-2.2 7.5-3.4c3-1.1 8.9-3.6 13-5.6s8.1-3.6 8.8-3.6c2.2 0 19.4-6.1 22.7-8 4.7-2.8 22.5-9.8 28-11 2.8-.6 6.2-1.8 7.6-2.49999997 1.5-.8 6.4-3.1 11-5.2l8.4-3.7 20.5-.4c17.8-.3 20.8-.1 22.5 1.3 1.3 1 1.6 1.8.9 2.1-.8.3-1 3.1-.7 8.79999997.3 4.5.2 12.6-.2 17.9-.6 8.9-.8 9.6-3 10.1-4.3 1.1-49.9 6.7-69.5 8.6-10.7 1-30.5 3.4-44 5.3-13.5 2-35 5-47.9 6.8l-23.3 3.3 2.4 2.1c1.3 1.1 3.9 3.9 5.7 6.3 1.8 2.3 5 5.1 7 6.2 2.1 1 6.3 4.8 9.5 8.5 3.2 3.6 7.5 7.4 9.6 8.5 2 1 5 3.6 6.5 5.6000002 3.9 5.1 8.3 9.1 12.6 11.4 2 1 4.3 3 5.2 4.4 2 2.9 9.8 10.3 13.5 12.8 1.5 1 6.3 5.3 10.7 9.5 4.4 4.3 11.8 11.2 16.5 15.3 26.5 23.5 30.5 27.5 30.8 31.3l.3 3.7-12.3-.1c-6.8-.1-31.4-.8-54.8-1.5z"/><path d="m381.5 169.220356c-2.3-10.5-2.7-12-7.5-25.3-6.9-19.5-9.8-28.5-10.9-34.1-.5-3-3-11.6000002-5.5-19.2000002-4.4-13.1-5.8-21.7-3.6-21.7.6 0 1 .4 1 1 0 .5 2 2.1 4.4 3.5 2.3 1.4 5.1 3.4 6.1 4.5s4.3 3.1 7.3 4.5 8.6 5 12.3 8c3.7 3.1 8.5 6.6 10.7 7.8 4.6 2.6000002 15.1 9.7000002 20.7 14.1000002 2.2 1.8 5.3 3.7 6.8 4.4 4.4 1.9 13.1 8.7 17.1 13.4 3.2 3.7 3.5 4.4 1.9 4.7-3 .6-10.2 6-17.2 12.9-3.6 3.6-8.2 7.5-10.2 8.8-2 1.2-6.6 5.1-10.2 8.6-7.8 7.6-14.4 11.8-18.5 11.8-3 0-3.1-.1-4.7-7.7z"/></g><g fill="#e57332" transform="translate(0 .9204)"><path d="m475 599.3c-2.3-4.9-5-11.1-6-13.8-2.1-5.9-4.4-10.7-9.4-18.9-2-3.3-5-9.5-6.6-13.8-1.7-4.3-6.1-13.8-9.9-21.1-3.7-7.2-7.8-15.9-9.1-19.2s-3.6-8-5.1-10.5-4-7.6-5.5-11.4c-2.8-6.7-2.8-6.8-.9-8.2 4.1-2.9 6.1-5.3 8.5-10.3 2.2-4.5 2.8-5.1 5-4.7 3.3.6 16.7 4.8 25.5 8.1 3.9 1.4 12.6 4.1 19.5 6 15.2 4 22.4 6.3 35.5 11.1 9.9 3.6 14.4 4.8 21.7 5.9 2 .3 4.6 1.4 5.8 2.3l2.2 1.8-2.1 3.9c-1.2 2.2-2.1 4.4-2.1 4.8 0 1-7.8 13.2-13 20.4-1.6 2.3-3.9 6.6-5 9.6s-3.6 7.4-5.4 9.8c-1.9 2.4-5.8 8.9-8.7 14.4s-7.6 13.5-10.5 17.7c-3 4.2-6.7 10.5-8.4 13.9-3.6 7.6-6.6 10.9-9.6 10.9-1.9 0-3-1.5-6.4-8.7z"/><path d="m213.4 555.1c.4-.5.2-1.1-.2-1.3-1-.4-17.9-21.4-24.6-30.6-2.7-3.7-7.1-8.4-9.8-10.5-4-3.1-4.8-4.3-4.8-7 0-3.9-2.5-14.1-7.5-30.7-6.1-20.4-8.6-30.3-8.3-32.9.3-2.2 1.6-2.8 12.3-6.2 26.4-8.2 37.2-10.9 44.3-10.9 3.4 0 4.2 1.3 1.6 2.8-1.4.8-1.6 7.3-1.6 64.5 0 39.9-.4 63.7-1 63.7-.5 0-.7-.4-.4-.9z"/><path d="m398.7 444.7c-.3-.8-3.1-2.4-6.4-3.7-3.2-1.3-7.6-3.3-9.8-4.6-2.2-1.2-6.7-3-10-3.9-8.4-2.3-9.7-3.5-9.3-8.2.4-3.6.4-3.7 1.4-1.3l1.1 2.5 1.6-3c1.7-3.3 7.4-8.9 12.4-12.4 6.9-4.7 22.1-30.3 25.2-42.5.7-2.7 2-6.7 3.1-8.8 1.7-3.5 1.7-3.9.2-4.7-1.6-.9-1.6-1.1-.1-2.7 1.6-1.5 1.7-1.5 2.3.4.6 1.8 1 1.6 4.7-2.2 2.3-2.2 4.4-4.7 4.9-5.5.6-1.2 2.4-.6 9.1 2.9 4.6 2.4 9.5 5.1 10.9 6s5 2.5 8 3.5c3 .9 7.2 2.8 9.4 4.2l3.9 2.5-.7 6.5c-.6 5.5-.4 6.5.8 6 2-.8 4.6 2.4 4.6 5.7 0 2.6-.1 2.7-2.2 1.2-4.8-3.4-6.1-2.3-7.3 6.6-.4 3.3-1 4.5-1.9 4.2-1.5-.6-8.2 4.8-12.9 10.3-1.8 2.1-9.1 9.7-16.2 16.9-7.2 7.2-15.5 15.9-18.5 19.2-5.7 6.3-7.4 7.3-8.3 4.9z"/><path d="m145.3 402.9c-1.7-.5-3.5-1.8-3.8-2.9s-9.3-10.2-19.8-20.2c-10.6-10.1-26.5-25.5-35.5-34.3-15.3-15-16.3-16.2-16-19.4.3-3.1.7-3.5 6.9-6 3.6-1.4 7.6-3.3 9-4.2 4.2-2.8 15.1-8.1 21.9-10.6 7-2.6 27.9-12.6 32-15.4 1.4-.9 5.2-2.5 8.5-3.4 3.3-1 8.3-2.8 11.2-4.1 2.8-1.3 5.6-2.4 6.1-2.4 1.1 0 11.2 19.5 11.2 21.7 0 1.5 3.9 10.1 11.5 25.3 1.8 3.6 5 10.9 7 16.3s5.1 12.4 7 15.5c1.8 3.2 4.1 7.8 5.1 10.2.9 2.5 2.1 5 2.5 5.5.4.6 1.2 3 1.9 5.5.6 2.5 2 5.7 3.1 7.2l1.9 2.7-6.8 2c-8.5 2.4-15.2 3.8-22.2 4.7-6.3.7-23.1 4.9-26 6.4-2.3 1.2-12.3 1.2-16.7-.1z"/><path d="m567 327.4c-3-.7-11.3-3.6-18.5-6.4-14.5-5.7-28.5-10.2-36-11.7-5.1-1.1-19.4-5.8-27.5-9.2-2.5-1-6.4-2.7-8.7-3.6-2.9-1.2-4.3-2.4-4.3-3.7 0-1-.7-1.8-1.5-1.8-1.8 0-1.6.7-6-25.5-2-11.5-3.8-21.7-4-22.5-.9-3.2-6.5-37.2-6.5-39.6 0-2.6.1-2.6 6.3-2.2 5.2.3 8.5 1.5 20.7 7.5 8 3.9 15.6 7.4 17 7.8 5.1 1.4 7 3.4 7 6.9 0 1.9-.4 3.6-.8 3.8-1.5.6-9.2 16.9-10.7 22.9-.8 3.2-4.4 11.9-8 19.5-3.6 7.5-6.5 13.8-6.5 14 0 1.1 2.5-.1 9.5-4.7 4.3-2.8 12.9-7.5 19.1-10.4 6.1-3 13.2-6.8 15.6-8.4s8.6-4.8 13.7-7.1c5.2-2.2 10.3-4.7 11.5-5.5 3-2.2 11.3-1.9 14.2.4 1.4 1.1 5.4 2.9 8.9 4.1s7.5 3 8.8 4c1.4 1.1 5.3 3.3 8.8 5 3.5 1.6 7.5 3.9 8.8 5 2.3 2 2.3 2.1.6 4-1.9 2.1-6.7 18.8-5.9 20.2.3.5 1.2.8 2 .8 1.9 0 1.8 1.7-.3 4-1.7 1.8-7.9 15.9-12.3 28.3-2.1 5.6-2.2 5.7-5.8 5.6-2-.1-6.2-.7-9.2-1.5z"/><path d="m344.4 257.3c-1.4-1.8-3.4-2.8-6.4-3.2-3.9-.5-4.7-1.1-7.4-5.6-1.7-2.8-5.9-7.8-9.3-11.3-3.5-3.4-7.2-8-8.3-10.3-1.2-2.2-2.7-4.2-3.5-4.5s-4.9-4.9-9.2-10.1c-4.3-5.3-10.2-12.3-13.1-15.7-4.3-5-5.2-6.7-5-9.5.1-2 .9-3.5 1.8-3.8 2.3-.8 15.3-6.9 27.1-12.8 5.8-2.9 13.1-6 16.3-6.9 5.2-1.5 10.4-3.8 23.5-10.5 2.3-1.2 7.7-3.4 12-4.8 4.2-1.4 12.3-4.9 18.1-7.8s12.2-5.8 14.3-6.4c2-.7 3.7-1.5 3.7-1.7 0-.7-8-11.4-11.6-15.5-1.7-2-3.7-5.4-4.4-7.5-.7-2.2-2.9-6.1-5-8.9-8.3-11.3-10.9-15.3-13.4-20.6-1.5-3-5.2-8.6-8.2-12.5-3.1-3.8-6.9-9.6-8.4-12.9s-4.6-8.1-6.9-10.7c-4.1-4.7-5.2-7.8-2.7-7.8 1.9 0 3-14.2 2.1-26.5-.7-8.4-.6-9.5.9-9.5.9 0 5.9 2.2 11.1 5 5.2 2.7 10 5 10.7 5 2 0 19.9 8.4 23.9 11.2 2 1.3 7.2 3.8 11.5 5.4s11.2 4.6 15.3 6.7c4.2 2.1 10.6 5.3 14.2 7.2 3.6 1.8 8.8 4 11.5 5 2.7.9 8.8 3.7 13.7 6.3 7.5 4.1 9 4.5 10.7 3.4 1.8-1.1 2-1 2 2.1 0 2.4-1 4.5-3.5 7.4-1.9 2.3-3.5 4.5-3.5 5 0 1.5-7.3 10.8-11.9 15.3-2.4 2.3-5 5.8-5.8 7.8s-4.1 6.4-7.3 9.9c-3.1 3.4-7 8.2-8.6 10.5-3.9 5.9-15.5 21.1-16.9 22.3-.7.6-1.5 3.4-1.9 6.4-.4 2.9-1.8 8.1-3 11.5-2.9 7.3-6.1 17.1-8.2 24.6-.8 3-2.3 6.4-3.4 7.5-1 1.1-4.2 5.6-7 10-2.9 4.4-6.4 9.2-7.8 10.8-1.4 1.5-4 5.3-5.7 8.5-3.3 6.3-2.2 5.8-18.4 8.3l-7.3 1.1.6 7.7c1.4 16.9 1.8 28.1 1 28.000664-.5 0-1.8-1.200664-3-2.600664z"/><path d="m520.2 228.8c-.9-6.1-5.6-25.5-10.8-44.3-2.6-9.8-3-14-1.4-15 .6-.3 1.4.3 1.8 1.4.7 1.9.8 1.9 5.1-.7 2.4-1.5 7.3-5.5 10.8-9 3.6-3.5 8.2-7.4 10.2-8.6 2-1.3 6.6-5.2 10.2-8.8 8.4-8.2 15.3-13 18.2-12.6 1.7.2 3.4 2.7 7.4 10.8 2.9 5.8 5.2 11.3 5.3 12.3 0 2.8 13.3 29.6 14.7 29.6.6.1 1.4-.5 1.6-1.1.3-.7.6.1.6 1.7.1 2.6-.4 3.3-3.2 4.3-1.8.7-6.6 4.1-10.5 7.7-4 3.6-9.2 7.5-11.5 8.6-2.3 1.2-4.8 3-5.5 4s-4.9 4.4-9.5 7.6c-4.5 3.1-11.9 8.6-16.4 12-6.8 5.3-8.7 6.3-12.1 6.3h-4z"/><path d="m50 187.2c-3-1-9.1-3.4-13.5-5.4-15.5-6.9-25.7-11.1-29.1-11.8-3.4-.8-3.4-.7-3.4 2.6 0 2.7-.4 3.4-2 3.4-1.8 0-2-.7-2-6.6 0-3.6.9-10 1.9-14.2 1.1-4.3 2.2-9.6 2.6-11.9.7-4.4 2.6-6.1 10.4-9.3 5-2 19.1-10.4 22.9-13.5 1.8-1.5 6.3-3.9 9.9-5.2 3.7-1.3 8.7-3.9 11.2-5.7s6.2-4.1 8.1-5.1c1.9-.9 4.5-2.6 5.7-3.7 1.1-1.1 4-2.4 6.3-2.9s6.5-2.7 9.3-4.8c2.9-2.1 10.4-6.5 16.7-9.7s15.1-8.1 19.5-11c9.9-6.4 15.8-9.4 18.5-9.4 2.5 0 2.3-4.3 2.1 52.5-.3 53.4.3 65.5 3 66.2 1.1.3 1.9 1.1 1.9 1.8 0 1.2-1.9 1.4-35.5 3.6-7.7.4-24.1 1.1-36.5 1.4-20.1.5-23.1.3-28-1.3z"/></g><g fill="#d75a2e" transform="translate(.575 37.2749)"><path d="m469.425 570.04541c-5.2-.7-17.6-2-27.5-2.9-16.3-1.4-35.2-3.7-90.6-11.1-10.3-1.3-20.5-3.1-22.8-3.9s-8.9-2.3-14.8-3.4c-5.9-1.2-17.9-4.4-26.7-7.2-26.7-8.4-28.2-8.8-38.3-10.8-5.4-1.1-14.1-3.4-19.3-5-5.2-1.7-10.1-3.1-10.7-3.1-1.7 0-1.7-1.5 0-2.8.7-.6 5.1-2.3 9.8-3.7 11.3-3.6 32.9-11.5 35.4-13.1 1.1-.7 6.7-2.6 12.5-4.3 13.1-3.9 17.2-5.3 23.5-8 13.3-5.5 26.1-10.2 32.7-12 7.5-2 27.2-9.3 36.8-13.7 3-1.4 7.8-2.9 10.5-3.3 5.4-.9 14.6-4.2 31.9-11.5 6.1-2.6 11.3-4.3 11.6-3.9.4.5 1.7 3.3 2.9 6.3 1.3 3 3.5 7.5 5 10s3.8 7.2 5.1 10.5 5.4 12 9.1 19.2c3.8 7.3 8.2 16.8 9.9 21.1 1.6 4.3 4.6 10.5 6.6 13.8 4.8 7.9 7.8 14 9.4 18.9.7 2.2 3.4 8.4 6 13.7 3.3 6.8 4.4 10 3.7 10.7-.6.6-1.3 1-1.6 1-.4-.1-4.9-.8-10.1-1.5z"/><path d="m232.425 382.54541c-6.3-1.6-18.2-3.6-26.5-4.4-16.9-1.8-28-3.6-40.5-6.5-4.7-1.1-10.2-2.3-12.2-2.6-3.1-.5-3.8-1.1-3.8-2.9s.4-2.1 3-1.7c1.6.2 4.7-.3 6.9-1.1 5.2-2.1 18.4-5.3 25.1-6.1 7.1-.9 13.8-2.3 22.3-4.7l6.7-2 3.8 3c2 1.6 4.7 3.2 5.9 3.5 1.2.4 3.6 2.4 5.4 4.4s6 5.8 9.3 8.4c12.2 9.5 15.6 12.3 15.6 12.9 0 .4-1.5.9-3.2 1.2-1.8.3-4 .7-4.8 1s-6.7-.8-13-2.4z"/><path d="m512.925 379.04541c-2.7-2-7.1-4.6-9.6-5.9-2.6-1.3-7.7-4.9-11.5-8-3.8-3-9.6-6.9-12.9-8.5-5.4-2.8-9.5-5.6-17.8-12.6-1.6-1.3-2.5-2.8-2.2-3.4.4-.6 5.9-1 13.4-1 14.8 0 28.8-2.2 46.1-7.3 6.3-1.9 15.8-4.2 21-5.1 5.2-1 11.1-2.1 13-2.5l3.5-.7-5.9-4.3c-3.3-2.5-7.6-5.8-9.5-7.6-2-1.7-6.2-4.6-9.5-6.5-3.2-1.9-7.5-5.2-9.5-7.3s-6.1-5.2-9.1-6.7c-3-1.6-7.1-4.6-9.2-6.7-2-2.1-6.2-5.6-9.4-7.8-10.8-7.4-18.9-13.8-20.5-16.2-1.6-2.3-1.6-2.1-2.8 6.9-.7 5.1-1.8 12.7-2.6 16.8s-2.8 16.3-4.5 27c-1.8 10.7-3.3 19.7-3.5 19.9s-1.1-.3-1.9-1.2c-2.6-2.6-7.9-5.4-13.6-7.2-3-1-6.6-2.6-8-3.5-1.4-1-5.7-3.4-9.7-5.3-3.9-2-7.4-4-7.7-4.5-.2-.4 11.1-12.5 25.1-26.7 28.9-29.4 28.6-28.6 10.9-24.6-5 1.1-14 3-20.1 4.1-6 1.2-15.5 3.1-21 4.2-11.7 2.4-18.5 3.7-20.4 3.7-.9.1-1.2.9-.8 2.7.4 2.4.2 2.6-2.4 2.2l-2.9-.5v5.9c0 6.8 1.5 10.8 7 18.9 2.3 3.4 4 7.1 4 8.7v2.8l-14.7-7.3c-8.2-4.1-16.6-8.7-18.8-10.3s-5.9-3.6-8.2-4.4c-4.3-1.5-4.3-1.5-4.3 1 0 1.7-.5 2.4-2 2.4-1.1 0-2-.3-2-.7-.3-8.6-3.2-35.9-3.9-36.1-.5-.2-.1-2.2 1-4.5 2.2-5.1 2.4-11.3.4-22.7-.8-4.7-1.7-11-1.9-14s-.7-10.8-1.1-17.2c-.8-11.4-.7-11.8 1.2-11.8 1.5 0 3.6 2.8 8.3 11.3 3.5 6.1 9 15.2 12.2 20.1 3.2 4.8 5.8 9.3 5.8 10 0 .6 3.8 7 8.5 14.1l8.5 13v-27.6c0-17.1-.4-28.8-1.1-30.7-1.5-4.3-11.6-8.7-23-9.9-6.8-.7-7.9-2.6-2.1-4 3.2-.7 4.1-1.7 6.7-6.6 1.7-3.1 4.3-6.9 5.7-8.4 1.4-1.6 5.1-6.7 8.2-11.4 3-4.7 6.2-9.2 7.1-9.9.8-.7 1.5-1.9 1.5-2.6 0-.8.7-1.4 1.5-1.4 1.2 0 1.5 3.1 1.7 20l.3 20 2.8-1.5c2.6-1.3 2.7-1.3 2.1 1.1-.7 2.8.7 3.2 2.7.7 1.6-1.8 18.4-15.4 25.4-20.4 2.4-1.8 4.7-4 5-5.1.9-2.5 2.3-2.3 10.6 1.7 3.9 1.9 9.6 4 12.5 4.6 4.1.9 5.4 1.6 5.4 3.1 0 1.2-.7 1.8-2.1 1.8-1.5 0-1.9.5-1.5 1.8.3.9 1.5 7.6 2.6 14.7 1.2 7.2 2.5 14.8 3 17s2.5 13.5 4.5 25c1.9 11.6 3.8 22.1 4.1 23.4l.5 2.4 1.3-2.4c4.7-9.2 16.6-36 17.1-38.9.8-4 9.2-22.2 10.8-23.1.6-.4.1-1.3-1.2-2-1.1-.8-2.1-1.8-2.1-2.3 0-1.6 8.8.1 12.2 2.5l3.3 2.3-3.4-3.9c-1.8-2.1-4-5.4-4.8-7.4-.8-1.9-3.4-5.7-5.8-8.3-2.3-2.6-7.2-9.1-10.8-14.5-7.4-11.1-7-9.3-10.7-44.3-1.1-10.7000002-3.2-30.1000002-4.6-43.0000002-2.8-25.7-4.3-41.2-4.4-44.7 0-1.9.5-2.3 3-2.3 1.7 0 3 .5 3 1.2s1.1 4.2 2.4 7.8c3.8 10.5 12.4 38.2 13.1 42.4.7 4.1 4 14.4 10.6 32.6000002 2.2 6.3 5.2 16.2 6.5 22s3.5 14.6 4.9 19.5c5.1 19 9.8 38.3 10.7 44.3.6 3.4 1.5 6.2 2 6.2s4.7-2.8 9.1-6.3c4.5-3.4 11.9-8.9 16.4-12 4.6-3.2 8.8-6.6 9.5-7.6s3.2-2.8 5.6-4c2.3-1.2 7.2-4.9 11-8.3 3.7-3.3 8.7-7 11.2-8.1s5.1-2.9 5.8-3.9c.8-1 3-3 5-4.3 2.1-1.4 6.4-4.5 9.7-6.9 3.3-2.5 6.3-4.5 6.8-4.5.4-.1.7 1.3.7 2.9 0 5.1-4.5 12.4-12.7 20.6-2.3 2.3-5.2 6.5-6.4 9.3-1.2 2.9-3 5.8-4.1 6.5-1.8 1.3-5 5.4-19.3 25-3.8 5.3-7.3 9.6-7.7 9.6s-1.9 2.2-3.3 5c-2.3 4.6-2.7 4.9-5.7 4.5-1.9-.2-4.3.2-5.5 1.1-1.3.8-6.4 3.3-11.5 5.5s-11.2 5.4-13.6 7-9.5 5.4-15.6 8.4c-6.2 2.9-14.6 7.5-18.8 10.2-4.1 2.7-9.5 5.7-12.1 6.7s-4.7 2.1-4.7 2.5c0 .5 1.9 1.6 4.3 2.6 2.3.9 6.2 2.6 8.7 3.6 8.1 3.4 22.4 8.1 27.5 9.2 7.5 1.5 21.5 6 36 11.7 7.2 2.8 15 5.5 17.5 6.1 2.5.5 5.2 1.2 6.2 1.5 1.2.3 2-.7 3.4-4.3 2.6-7.3 8.1-20.7 10.5-25.8l2.1-4.5h30.2 30.1v52c0 28.6-.3 52-.6 52s-1.4-.9-2.4-2c-1.7-1.9-1.9-4.2-1.9-26 0-13.2-.1-23.8-.3-23.7-.1.2-1.6 7-3.3 15.2-1.8 8.3-3.3 15.2-3.6 15.4-.2.3-1-.4-1.8-1.5-1.4-1.8-1.6-1.8-7.3.9-3.2 1.5-8 3.2-10.8 3.8-2.7.5-6 1.7-7.2 2.4-1.2.8-5.5 2.8-9.5 4.4-4 1.7-9.5 4.1-12.3 5.5-2.7 1.4-5.6 2.6-6.3 2.6-1.7 0-21 7.7-23.7 9.4-3.2 2-20.6 9.6-22.1 9.6-2.6 0-10.9 3.2-14.4 5.6-1.9 1.3-3.9 2.4-4.5 2.3-.5 0-3.2-1.6-6-3.5zm106-53.1c-2.7-1.4-7.1-4.5-9.7-6.9s-7.3-6.1-10.5-8.2c-3.2-2-8.7-5.9-12.2-8.5-6.1-4.5-8.1-5.1-8.1-2.3 0 .7-1.7 5.1-3.9 9.7-6.3 13.7-6.7 12.5 4.6 13.2 5.4.3 13 1 16.8 1.6 3.9.6 10.8 1.7 15.5 2.5 12.3 1.9 13.1 1.8 7.5-1.1z"/><path d="m135.925 364.04541c-2.2-.8-8.3-2.6-13.5-4-5.2-1.3-14-4-19.5-6-21-7.6-26.3-9.3-35-11.3-4.9-1.2-15.5-4.6-23.5-7.7-20.7-8-25.2-9.5-27.5-9.2-1.1.1-3.9-1-6.2-2.5-3.1-2-4.5-3.6-5.2-6.4-.5-2.1-1.5-26.7-2.1-54.8-.5-28-1.6-62.7-2.2-77-1.4-29.8-1.6-55-.6-56 1.2-1.2 14.6 3 27.3 8.5 22.7 9.9 26.7 11.2 35 12 6.8.6 9.9 1.6 21 6.6 7.2 3.3 15.6 6.6 18.8 7.3 7.8 1.7 26.3 10.5 27.7 13.1 1 1.9.9 2-1.6 1.4-2.1-.5-2.5-.4-1.8.7.5.8 3 4.6 5.7 8.6 2.6 3.9 6.4 10.5 8.4 14.5s6.2 10.9 9.4 15.4c3.2 4.4 6.9 10.5 8.3 13.5 1.3 3 3.8 7.7 5.5 10.6l3.1 5.2-5.2 2.4c-2.9 1.4-8 3.2-11.3 4.2-3.3.9-7.1 2.5-8.5 3.4-4.1 2.8-25 12.8-32 15.4s-18 7.9-22 10.7c-1.4.9-5.2 2.7-8.5 4s-6.4 2.6-6.8 3c-.5.4 9.7 10.8 22.5 23.1 32.9 31.7 51.8 50.7 51.8 52.2 0 1.2-7.4.6-11.5-.9z"/><path d="m278.125 151.64541c-.4-1.6 0-2 2-2 1.3 0 2.2-.4 1.8-1-.6-1-16.8-15.8-30.5-28-4.7-4.1-12.1-11-16.5-15.3-4.4-4.2-9.2-8.5000002-10.7-9.5000002-3.7-2.5-11.5-9.9-13.5-12.8-.9-1.4-3.2-3.4-5.2-4.4-4.3-2.3-8.7-6.3-12.6-11.4-1.5-2-4.5-4.6-6.5-5.6-2.1-1.1-6.4-4.9-9.6-8.5-3.2-3.7-7.5-7.5-9.5-8.6-2.1-1-5.4-3.9-7.3-6.5-1.9-2.5-5.5-6.2-8-8.2-4.1-3.3-4.4-3.8-2.9-5 .9-.6 2.7-1.2 4.1-1.2 1.3 0 11.6-1.3 23-3 56-7.9 80.1-11.1 95.2-12.5 16.6-1.5 61.2-7 65.4-8.1 3-.7 9.8 6.8 13.6 15.1 1.5 3.3 5.3 9.1 8.4 12.9 3 3.9 6.7 9.5 8.2 12.5 2.5 5.3 5.1 9.3 13.4 20.6 2.1 2.8 4.3 6.7 5 8.8s2.5 5.4 4.2 7.2c2.6 3 10.2 13.2 13.5 18.2 1.2 1.7 1.3 1.7 2.8-.1 1.4-1.9 1.5-1.8 1.5 1.1 0 1.7-.3 3.8000002-.6 4.7000002-.8 2.1-3.4 2.1-3.4 0 0-2.6000002-5-1.1000002-20 6.1-7.4 3.5-16.2 7.3-19.6 8.3-3.3 1.1-8 3-10.5 4.2-13.2 6.8-18.3 9.1-23.5 10.6-3.2.9-10.5 4-16.3 6.9-12.1 6.1-24.7 12-27.5 12.9-1.5.5-1.6.9-.6 2.1 1.1 1.3.7 1.5-2.8 1.5-3.1 0-4.1-.4-4.5-2z"/></g><g fill="#c64321" transform="translate(5.4 51.9204)"><path d="m171.2 460.1c-.9-1-4.4-3.3-7.7-5.1-3.3-1.7-7.1-4.2-8.6-5.6-1.4-1.3-3.3-2.4-4.2-2.4-2.3 0-8.7-3.5-14.6-8-2.7-2.1-7.8-5.2-11.2-7-3.5-1.7-6.3-3.6-6.3-4.2 0-1.1-5.4-6.9-26-28-4.7-4.8-10.3-10.8-12.4-13.4-2.2-2.5-5.7-5.9-7.9-7.5-2.1-1.6-5.1-4.8-6.6-7.1-2.7-4.3-10.3-11.8-11.9-11.8-.5 0-2.3-2.2-4-4.8-1.7-2.7-5.3-6.8-7.9-9-7.2-6.2-8.5-7.6-12.3-12.7-1.9-2.6-5.2-5.8-7.2-7.1s-4.5-3.5-5.5-4.9c-1-1.5-3.5-4.8-5.6-7.5-5-6.6-4.8-7.4 1.2-6.6 5.5.7 9.3 2 30.1 10 8 3.1 18.6 6.5 23.5 7.7 8.7 2 14 3.7 35 11.3 5.5 2 14.1 4.7 19 6 5 1.3 13.1 3.6 18 5.1 5 1.5 10.6 3.1 12.5 3.5s7.8 1.8 13 3c13.6 3.1 23.8 4.8 37.5 6 11.5 1 39.1 6.4 40.8 7.9.4.5.2 1.2-.5 1.8-1.3.9-39.9 9.3-43.1 9.3-.9 0-5.1 1.1-9.4 2.4-4.3 1.4-13.2 4.1-19.8 6.2-6.6 2-12.3 3.8-12.6 4-.7.4 2 10.6 7.6 29.4 4.9 16.4 7.5 26.8 7.5 30.6 0 1.7.5 4.5 1.1 6.3 1.4 3.9.8 4.8-1.5 2.2z"/><path d="m361.9 397c-1.2-.5-6.6-1.6-12-2.5s-15-3.1-21.3-4.9c-14.1-4.1-28.8-8.2-35.5-9.7-2.7-.7-5.5-1.3-6.2-1.5-.9-.2-.5-1.9 1.2-5.8 1.3-3 3.1-8.3 4-11.8s3.6-10.9 6.1-16.5c2.4-5.6 4.4-10.4 4.4-10.7s1.5-3.8 3.4-7.8 3.8-9.1 4.2-11.3c.7-4 7.9-23.1 9.4-25 1.8-2.4 8-18.5 9.1-23.5.6-3 2.4-8 3.9-11 1.4-3 3.7-8.1 4.9-11.2 2-4.9 4.5-7.7 5.8-6.5.2.2 1 8 1.8 17.3.7 9.3 2.6 25.7 4 36.4 2.5 18.9 3.6 27.7 5.5 44.5 4.1 37.3 4.3 38.2 9.9 41.4 1 .6 1.1 1.3.2 2.9-.6 1.1-.9 2.7-.7 3.4.9 2.8 1.6 14.8.9 14.700621-.4 0-1.8-.400621-3-.900621z"/><path d="m642 340.3c-1-3-6.3-13.6-8.8-17.7-1.6-2.6-2.2-4.5-1.6-5.5.4-.9 1.8-6.5 3-12.6 1.1-6 2.5-12.3 3-14 .5-1.6 1.4-6.7 1.9-11.3 1.7-13.5 3.2-21.2 4.2-20.6 1.2.7.9 83.4-.3 83.4-.5 0-1.1-.8-1.4-1.7z"/><path d="m516.5 318.2c-3.7-2.9-10.1-6-14.1-6.7-4.1-.8-5.7-3.1-2.8-4 1.9-.6 1.9-.7.1-5.6-1.1-2.7-3.5-7.1-5.4-9.7-1.9-2.7-6.7-11.3-10.6-19.2-4-8-8.3-15.9-9.7-17.7-2.4-3.2-5.8-10.2-5.2-10.8.8-.7 4.9 1.7 10.9 6.1 3.5 2.7 9.1 6.7 12.3 8.9s7.4 5.7 9.4 7.8c2.1 2.1 6.2 5.1 9.2 6.7 3 1.5 7.1 4.6 9.1 6.7s6.3 5.4 9.5 7.3c3.3 1.9 7.5 4.8 9.4 6.5 1.9 1.6 7 5.7 11.4 8.9 8.8 6.7 10.1 6.7 12.1.1.6-2.2 2.8-7.5 4.8-11.8s3.9-9.4 4.3-11.3c.3-1.9 1.1-3.4 1.8-3.4.6 0 4.5 2.5 8.6 5.5s10.6 7.5 14.3 10c3.8 2.5 8.9 6.5 11.5 8.9s6.7 5.4 9.2 6.6c4.7 2.3 11 7.7 11 9.3 0 1.1-7.2.5-22-1.7-23.7-3.6-28.1-4.1-37-4.1-10.8 0-39.9 4.8-48.1 8-.8.3-2.6-.3-4-1.3z"/><path d="m0 282.5c0-4.9.1-7.1.3-4.8s.2 6.4 0 9-.3.8-.3-4.2z"/><path d="m380.5 253.3c-.5-9.6-.8-10.4-7.6-20.7-3.7-5.8-8.4-13.6-10.3-17.4-2-3.9-4.7-8.5-6.1-10.3-3.7-4.9-18.9-31.7-18.9-33.3 0-2.1 12.8-4 22-3.3 12.4.9 23.3 5.2 24.9 9.9 1.4 3.9 1.5 70.7.1 72.8-.5.9-.5 1.9.2 2.7.8 1 .4 1.3-1.6 1.3-1.8 0-2.6-.6-2.7-1.7z"/><path d="m588.1 217c-1-1.1-2.4-2-3.2-2-.7 0-1.3-.3-1.3-.7.1-2.7 4.4-15.7 8.8-26.3 8.2-20.3 10-25.2 11.7-31.7.8-3.4 3.4-10.6 5.6-16 6.9-16.7 10.9-27.5 12.5-34.3 1.8-7.7 6.6-16.6 13.1-24.3 4.2-5.1 5.2-5.7 8.5-5.7 2 0 3.9.4 4.2.8.3.5 1.7 6.6 3.1 13.6 2.5 12.5 2.6 13.3 1.9 40.2-.6 21.4-1 27.4-2 27.4-1.6 0-4.6-6.7-8-17.7-3.5-11.5-4.5-11.2-12.1 3-3.3 6.1-6.4 12.6-6.7 14.3-.4 1.7-2.9 6.7-5.7 11-2.7 4.3-4.9 8.3-4.9 8.9s-1.3 3.2-2.9 5.8c-1.7 2.5-3.5 6.5-4.1 8.9-.7 2.4-2.3 6.3-3.7 8.8s-4.1 7.5-5.9 11.3c-3.6 7.2-5.6 8.3-8.9 4.7z"/><path d="m311.1 199c-9.9-2-22.5-4.7-28-5.9-21.8-4.9-28.2-6.1-37.9-7.2-10-1.1-15.3-2.1-62.6-11.8-13.5-2.7-28.5-5.5-33.5-6.1-15.5-1.9-27.5-5.1-38.2-10.1-5.6-2.6-12.8-5.3-16-6s-12.5-4.3-20.8-8.1c-8.2-3.7-15.1-6.8-15.2-6.8-.2 0-.3-.4-.3-.9 0-.4 6.6-1.1 14.8-1.4 8.1-.3 23.5-1.2 34.2-1.9s28.5-1.3 39.5-1.3c27.5.1 128 3.4 130.5 4.3 2.1.8 7.2 6.4 20.3 22.5 4.3 5.2 8.4 9.8 9.2 10.1s2.3 2.3 3.5 4.6c1.1 2.2 5.2 7.2 9 11.1 3.8 3.8 8.1 9.2 9.6 11.9 1.5 2.8 3.1 5 3.6 5 .4 0 .8.5.8 1 0 1.5-2.6 1.1-22.5-3z"/><path d="m508.4 177.6c-3.7-1.8-7.3-3.7-8-4.3s-4.4-2.3-8.3-3.8c-5.5-2.1-30.8-13.9-32.4-15.1-.3-.3 3.2-8.1 6.6-14.9 3.5-7 9.9-15.5 11.5-15.5 1 0 1.8.5 1.8 1.2 0 1.7 12.6 20.2 17.5 25.6 2.4 2.6 5 6.4 5.8 8.5.9 2 3.6 5.8 6 8.4 7.6 8.3 10.4 13.4 7.5 13.2-.7 0-4.3-1.5-8-3.3z"/><path d="m464.8 11.8c-.7-.7-1.2-3.6-1.2-6.5 0-4.4.3-5.3 1.8-5.3 1.8 0 4.2 4.8 4.2 8.4 0 1.6-.2 1.6-1.6.5-1.3-1.1-1.4-.9-.9 1.4.8 2.8-.3 3.5-2.3 1.5z"/></g><g fill="#672816" transform="translate(366.3664 51.9204)"><path d="m12.4335563 400.6c-5.40000002-1.7-10.10000002-3.5-10.70000002-4.1-1.2-1.3-2.4-17.7-1.3-19.2.6-.9 2.7-.6 8.6 1.2 4.30000002 1.3 8.80000002 3.1 10.00000002 3.8 1.2.8 5.8 2.9 10.1 4.7 4.4 1.8 8.2 3.5 8.4 3.6.7.6-13.3 13.4-14.4 13.3-.5-.1-5.4-1.5-10.7-3.3z"/><path d="m101.933556 328.3c-9.4999997-.4-11.4999997-1.4-6.4999997-3.5 6.0999997-2.5 21.0999997-9.2 27.6999997-12.3 14.4-6.8 21.1-6.4 35.2 2.4 2.3 1.4 4.2 2.9 4.3 3.2 0 1-21.4 6.6-31.5 8.3-11.8 1.9-18 2.3-29.2 1.9z"/><path d="m39.5335563 301.5c-1.9-1.3-4.9-3.2-6.6-4.2-1.8-.9-3.3-2-3.3-2.5s-1.8-3.5-4-6.7c-7.2-10.5-8.3-16.1-6.4-31.8.7-5.7 1.2-6.2 3.7-3.5 2.1 2.3 14.7 29.3 14.7 31.5 0 1 1.6 5.5 3.5 9.8 4.8 11 4.6 11.9-1.6 7.4z"/><path d="m286.333556 234.3c-.7-3.3.9-42 2.3-57.8.6-6.1.7-13 .3-15.5-.5-2.5-.5-15.9-.1-29.9.8-24.8.7-25.7-1.8-38-1.4-6.9-3-13-3.5-13.6-2.8-2.7-16.9 18.8-19.3 29.4-1.6 6.8-5.5 17.4-12.5 34.4-2.2 5.4-4.8 12.6-5.6 16-1.7 6.5-2.9 9.7-12.5 33.7-3.2 8-6.1 16.2-6.4 18.3-.9 4.6-2.1 4.6-10.1.2-7.5-4.2-12.8-6.7-18.5-8.9-2.5-.9-5.5-2.5-6.7-3.5l-2.2-1.9 3-5.6c1.7-3.1 3.4-5.6 3.8-5.6s3.8-4.3 7.6-9.6c14.3-19.6 17.5-23.7 19.3-25 1.1-.7 2.9-3.6 4.1-6.5 1.2-2.8 4.1-7 6.4-9.3 6.7-6.7 14.1-17.6 12-17.6-.4 0 1.1-1.9 3.3-4.2 2.3-2.4 5.4-6.1 7-8.3s3.5-4.4 4.2-4.8c.6-.4 2.2-2.7 3.3-5 2.5-4.8 7.1-11 11.1-14.9 1.6-1.4 3.5-4.3 4.4-6.4 3.8-9.1 10.6-13.8 11.9-8.2.2 1.3 1.4 5.9 2.5 10.3s2.9 14.1 4 21.5c1.2 7.4 3.9 20.7 6 29.5 9.8 40.6 11 45.6 11 47.2s-7.4 17.8-13.4 29.3c-1.3 2.5-2.7 6.1-3.1 8s-2.2 6.7-4 10.5c-1.8 3.9-3.6 8.2-4 9.7s-1.3 3.2-2 3.8c-1 .8-1.4.4-1.8-1.7z"/><path d="m24.6335563 151.5c0-16.7.4-23.7 1.5-27.7 2-7.3 5.3-17.1 8-24.3 1.3-3.3 2.6-8.3 3-11 .6-4.1 2.1-6.7 8.4-15 4.2-5.5 8.9-11.9 10.5-14.3 1.6-2.3 5.5-7.1 8.6-10.5 3.2-3.5 6.5-7.9 7.3-9.9s3.4-5.5 5.8-7.8c4.6-4.4 11.9-13.8 11.9-15.2 0-.9 2.8-4.6 9.4-12.4 1.7999997-2.2 3.6999997-3.4 5.2999997-3.4 2.2 0 2.4.3 1.9 2.7-.7 3.1 0 11.7 3.8 46.3 1.4 12.9 3.5 32.3 4.6 43 1.2 10.7 2.6 22.8 3.1 26.8l1.1 7.4-4 5.6c-4.3 6.4-7.1 11.4-10.1 18.5-1.1 2.6-2.4 4.7-3 4.7-3.1999997 0-21.7999997-5.7-28.1999997-8.7l-7.7-3.5 6.1-12.1c3.3-6.7 7-13.5 8.2-15.2 4.4-5.9 9.7-17.9 11.1-25.4.9-4.2 3.2-17.5 5.3-29.6 3.5999997-20.9 3.6999997-22 1.9-22.3-1.3-.3-8.1 6-23.1 21.3-11.7 11.9-21.6 22.4-22.1 23.3s-1.7 4.8-2.7 8.7c-.9 3.8-2.6 10.4-3.7 14.5-5.3 19.6-8.1 31-8.7 36-.3 3-1.8 10.3-3.2 16.2-2.1 9.1-2.9 11.1-5.5 13.3-1.6 1.4-3.4 2.5-3.9 2.5s-.9-9.4-.9-22.5z"/></g></g></svg>